<?xml version="1.0" encoding="UTF-8"?>
<svg xmlns="http://www.w3.org/2000/svg" viewBox="0 0 100 120" width="100" height="120">
  <!-- Logos λ mark — lowercase italic lambda -->
  <path d="M 30 110 Q 32 108 38 92 L 50 62 L 34 20 Q 32 14 30 12 Q 28 10 24 10 L 22 10 L 22 4 L 42 4 Q 48 4 51 7 Q 54 10 56 16 L 66 46 L 78 16 Q 80 10 80 8 Q 80 6 78 5 Q 76 4 72 4 L 70 4 L 70 0 L 92 0 L 92 4 Q 86 4 82 8 Q 80 12 76 22 L 56 72 L 48 92 Q 44 102 42 106 Q 38 114 34 117 Q 30 120 24 120 Q 18 120 14 117 Q 10 114 10 110 Q 10 106 13 103 Q 16 100 20 100 Q 24 100 26 103 Q 28 106 30 110 Z" fill="#000"/>
</svg>
